<?xml version="1.0" encoding="UTF-8" standalone="no"?>
<!-- Created with Inkscape (http://www.inkscape.org/) -->

<svg
   version="1.1"
   id="svg1"
   width="160"
   height="160"
   viewBox="0 0 159.99999 160.00001"
   sodipodi:docname="Leonardo_Phoenix_09_Design_a_modern_minimalist_logo_for_a_webb_1.jpg"
   inkscape:export-filename="LogoGestAgenda.png"
   inkscape:export-xdpi="123.18802"
   inkscape:export-ydpi="123.18802"
   xmlns:inkscape="http://www.inkscape.org/namespaces/inkscape"
   xmlns:sodipodi="http://sodipodi.sourceforge.net/DTD/sodipodi-0.dtd"
   xmlns="http://www.w3.org/2000/svg"
   xmlns:svg="http://www.w3.org/2000/svg">
  <defs
     id="defs1" />
  <sodipodi:namedview
     id="namedview1"
     pagecolor="#ffffff"
     bordercolor="#000000"
     borderopacity="0.25"
     inkscape:showpageshadow="2"
     inkscape:pageopacity="0.0"
     inkscape:pagecheckerboard="0"
     inkscape:deskcolor="#d1d1d1"
     inkscape:antialias-rendering="true">
    <inkscape:page
       x="0"
       y="0"
       width="159.99998"
       height="160.00002"
       id="page2"
       margin="0"
       bleed="0" />
  </sodipodi:namedview>
  <g
     inkscape:groupmode="layer"
     inkscape:label="Image"
     id="g1"
     transform="translate(-465.25269,-65.037522)">
    <path
       style="fill:#4e76ab;fill-opacity:1"
       d="m 496.27396,214.79662 c -3.88431,-1.00666 -7.97861,-5.31193 -8.67421,-9.12118 -0.31515,-1.72585 -0.43859,-27.54207 -0.27429,-57.36937 l 0.29873,-54.231458 3.26695,-3.26854 c 3.21542,-3.216987 3.43233,-3.27392 13.75,-3.60957 l 10.48305,-0.34103 v -3.27412 c 0,-4.44975 3.3543,-8.54383 7,-8.54383 3.68234,0 7,4.0925 7,8.63486 v 3.36514 h 18 18 v -4.34501 c 0,-4.9878 2.17981,-7.65499 6.25616,-7.65499 3.5175,0 6.74384,4.25418 6.74384,8.89227 v 3.62256 l 7.88659,-0.35815 c 9.17273,-0.416557 13.70363,1.18674 16.43879,5.817 1.595,2.70012 1.73374,7.462398 1.69154,58.061588 -0.0499,59.80385 0.0463,58.72764 -5.57477,62.41068 -2.42796,1.59086 -6.88227,1.75652 -51.04681,1.8985 -26.61271,0.0855 -49.67321,-0.17785 -51.24557,-0.58535 z m 98.55763,-3.80694 c 0,1.75079 3.53007,-2.03882 4.17078,-3.25 0.81998,-1.55008 1.23258,-14.26883 1.39338,-42.95251 l 0.22844,-40.75034 -54.75,3.4e-4 -54.75,3.5e-4 v 40.77749 c 0,44.03861 0.004,44.07061 5.357,46.23093 3.17373,1.28076 98.3504,-3.95906 98.3504,-0.0563 z m -52.7074,-26.41698 c 0,-11.44136 -0.16422,-12.5527 -2,-13.53518 -2.36812,-1.26738 -2.72193,-6.15596 -0.57453,-7.93815 1.07687,-0.89372 1.50484,-4.57233 1.75,-15.042 0.17849,-7.62243 0.64262,-14.17575 1.0314,-14.56294 0.38878,-0.38719 1.40128,-0.43752 2.25,-0.11183 1.28849,0.49444 1.54313,2.88731 1.54313,14.50109 0,11.14355 0.29823,14.15645 1.5,15.15383 2.06241,1.71165 1.88264,5.69194 -0.34314,7.59772 -1.65911,1.42058 -1.7954,2.81744 -1.36499,13.99021 0.46829,12.15634 0.43416,12.41207 -1.65686,12.41207 -2.06582,0 -2.13501,-0.40393 -2.13501,-12.46482 z m -22.66128,3.90512 c -0.36267,-0.94508 0.51679,-2.72382 2.23178,-4.51389 2.51582,-2.62594 2.99696,-2.78752 4.33029,-1.45419 1.33334,1.33334 1.17917,1.83488 -1.38748,4.51389 -3.26038,3.4031 -4.31319,3.69897 -5.17459,1.45419 z m 42.64192,-1.96091 c -2.2068,-2.34903 -2.25494,-2.63366 -0.70715,-4.18145 1.54779,-1.54779 1.83325,-1.47481 4.19368,1.07213 1.39305,1.50314 2.53283,3.38479 2.53283,4.18145 0,2.29618 -3.42873,1.68547 -6.01936,-1.07213 z m -54.3053,-19.13738 c -1.58064,-1.58064 1.51199,-2.8176 6.23922,-2.4955 3.5337,0.24078 5.08544,0.77477 5.08544,1.75 0,1.02922 -1.42226,1.40349 -5.33333,1.40349 -2.93334,0 -5.62943,-0.2961 -5.99133,-0.65799 z m 61.32466,-0.84201 c 0,-1.15152 1.27778,-1.5 5.5,-1.5 4.22222,0 5.5,0.34848 5.5,1.5 0,1.15152 -1.27778,1.5 -5.5,1.5 -4.22222,0 -5.5,-0.34848 -5.5,-1.5 z m -46.9522,-18.94912 c -2.1432,-2.28133 -2.29252,-5.55088 -0.2535,-5.55088 1.73373,0 5.44827,4.92548 4.8636,6.44912 -0.82881,2.15983 -1.94072,1.94318 -4.6101,-0.89824 z m 40.46497,0.46979 c -0.33289,-0.53864 -0.11862,-1.88864 0.47617,-3 1.36415,-2.54894 5.01106,-2.70954 5.01106,-0.22067 0,3.25157 -4.01257,5.6067 -5.48723,3.22067 z m 38.29053,-37.52067 c 0.58997,-17.506608 -0.84036,-19.499998 -13.99186,-19.499998 h -8.81144 v 4.37756 c 0,4.720088 -0.99676,6.081558 -5.23043,7.144138 -3.69589,0.92761 -8.76957,-3.958148 -8.76957,-8.444778 v -3.07692 h -17.5 -17.5 v 3.92742 c 0,3.05179 -0.58745,4.38951 -2.63486,5.999998 -5.0721,3.98972 -10.10923,1.3993 -11.0598,-5.687638 l -0.56868,-4.23978 h -9.79575 c -9.39143,0 -9.8813,0.10875 -11.86833,2.63486 -1.83247,2.3296 -2.07258,4.01045 -2.07258,14.508538 v 11.87368 l 54.75,-0.25854 54.75,-0.25854 z m -75.8033,-21.893008 c 0,-7.96847 -0.2614,-9.49332 -1.72362,-10.05443 -2.43527,-0.9345 -4.53641,2.25264 -3.83847,5.82244 0.30915,1.58125 0.56209,5.29375 0.56209,8.25 0,5.06667 0.14341,5.375 2.5,5.375 2.48923,0 2.5,-0.0405 2.5,-9.39301 z m 49,-0.17341 v -9.56642 l -2.75,0.31642 c -2.27541,0.261813 -2.73921,0.79101 -2.6875,3.06642 0.37176,16.35764 0.25844,15.75 2.9375,15.75 2.49245,0 2.5,-0.0289 2.5,-9.56642 z"
       id="path1"
       sodipodi:nodetypes="ssscsscssscccssscssssssssscccsssssssssssssssssssssssssssssssssssssssssssssscssscccssscssscccsssssssscssss" />
  </g>
</svg>
